<?xml version="1.0" standalone="no"?>
<!DOCTYPE svg PUBLIC "-//W3C//DTD SVG 20010904//EN"
 "http://www.w3.org/TR/2001/REC-SVG-20010904/DTD/svg10.dtd">
<svg version="1.0" xmlns="http://www.w3.org/2000/svg"
 width="1120.000000pt" height="1120.000000pt" viewBox="0 0 1120.000000 1120.000000"
 preserveAspectRatio="xMidYMid meet">

<g transform="translate(0.000000,1120.000000) scale(0.100000,-0.100000)"
fill="#000000" stroke="none">
<path d="M2290 6960 c-5 -10 -10 -25 -10 -33 0 -17 -47 -50 -60 -42 -23 14
-16 -17 13 -55 17 -24 36 -50 42 -59 5 -9 20 -33 32 -53 19 -31 20 -38 8 -38
-24 0 -18 -18 23 -68 42 -54 53 -63 64 -56 16 10 7 36 -22 66 -17 17 -28 33
-25 36 11 11 39 -14 61 -55 21 -40 21 -41 3 -57 -24 -20 -24 -35 -1 -43 38
-14 45 -26 22 -43 -18 -14 -20 -20 -10 -44 10 -27 12 -28 29 -12 9 9 22 16 28
16 6 0 14 6 16 13 4 8 6 7 6 -3 1 -8 -9 -20 -20 -25 -37 -17 -26 -30 27 -31
28 -1 56 -4 63 -8 18 -11 13 -28 -7 -22 -20 7 -61 -18 -49 -30 4 -4 27 -3 52
3 43 10 45 9 84 -28 35 -34 71 -51 71 -33 0 16 -23 44 -35 44 -8 0 -15 7 -15
15 0 8 -4 15 -8 15 -12 0 -132 123 -127 128 5 5 51 -24 79 -49 10 -10 24 -16
29 -12 6 3 7 1 3 -5 -4 -6 1 -19 11 -28 143 -129 205 -204 171 -204 -5 0 -8
-10 -6 -22 2 -15 11 -24 26 -26 24 -4 30 16 10 36 -8 8 -8 12 -1 12 6 0 13 -6
16 -14 3 -8 23 -22 44 -32 21 -10 60 -33 87 -51 26 -18 52 -30 57 -27 5 3 9 0
9 -5 0 -6 7 -11 15 -11 9 0 18 -8 22 -17 9 -26 40 -53 59 -53 10 0 14 -3 11
-7 -9 -9 31 -36 42 -28 5 3 12 1 16 -5 3 -5 -3 -10 -15 -10 -34 0 -72 -25
-123 -79 -26 -29 -47 -54 -47 -57 0 -3 -13 -19 -30 -34 -42 -39 -40 -74 9
-170 4 -8 17 -19 29 -25 15 -7 22 -19 22 -38 0 -15 4 -35 9 -45 5 -9 28 -55
51 -102 25 -53 62 -108 95 -143 30 -31 51 -57 47 -57 -4 0 1 -5 11 -11 9 -5
17 -18 17 -28 0 -10 13 -32 29 -48 16 -17 37 -47 46 -67 12 -24 30 -42 51 -51
22 -9 34 -21 34 -33 0 -11 16 -36 35 -55 19 -19 35 -38 35 -41 0 -7 10 -20 38
-51 6 -7 12 -17 12 -22 0 -11 36 -42 66 -55 30 -14 40 -44 23 -74 -7 -13 -9
-27 -5 -31 10 -10 42 12 38 27 -1 7 3 10 10 8 7 -3 13 -9 13 -14 0 -14 54 -64
68 -64 7 0 33 -20 57 -45 24 -25 51 -45 60 -45 9 0 33 -20 53 -45 32 -37 44
-45 72 -45 24 0 35 -5 35 -15 0 -21 57 -83 83 -90 12 -3 39 -11 60 -17 26 -8
41 -8 48 -1 7 7 19 7 37 -2 53 -26 68 -26 103 -2 31 21 34 28 33 70 0 25 -5
57 -11 69 -6 13 -13 33 -16 45 -5 22 -4 22 37 -4 22 -14 54 -37 70 -50 16 -13
35 -22 42 -19 8 3 14 -1 14 -8 0 -16 50 -59 110 -94 25 -14 47 -30 49 -35 1
-4 15 -19 30 -33 l26 -24 18 25 c21 28 47 33 47 9 0 -14 3 -14 15 -4 10 9 15
9 15 1 0 -6 5 -11 11 -11 6 0 9 7 6 14 -4 10 -1 13 8 10 7 -3 18 -19 24 -35
12 -34 29 -37 40 -7 7 20 8 19 14 -9 3 -17 4 -41 2 -52 -4 -19 6 -26 29 -22 5
1 6 -8 3 -20 -5 -18 -2 -20 21 -16 15 2 34 7 43 11 11 5 19 -3 30 -26 11 -26
20 -33 44 -35 17 0 36 -2 43 -2 8 -1 11 -8 7 -20 -3 -11 1 -26 12 -36 10 -11
19 -13 21 -7 2 7 11 8 27 2 15 -6 27 -6 30 1 4 5 10 7 15 4 5 -3 11 -1 15 5 3
5 10 10 14 10 13 0 21 -44 10 -51 -7 -4 -5 -12 5 -22 9 -8 16 -21 16 -27 0 -6
5 -8 10 -5 6 3 10 2 10 -3 0 -6 14 -15 30 -21 17 -5 30 -17 30 -25 0 -19 47
-42 82 -41 24 2 26 0 15 -13 -10 -13 -9 -15 5 -9 9 3 22 -1 28 -9 7 -8 19 -14
27 -14 7 0 27 -10 42 -21 16 -12 34 -18 40 -15 6 4 11 0 11 -8 0 -24 17 -19
36 8 10 17 21 23 32 19 26 -10 64 -51 58 -62 -10 -16 31 -33 52 -22 25 14 60
3 67 -20 4 -11 12 -18 18 -17 17 3 57 -24 57 -39 0 -23 29 -14 36 11 7 30 31
24 45 -11 8 -20 12 -23 24 -13 9 8 32 9 68 5 37 -5 57 -3 62 4 5 9 11 9 22 -1
11 -9 60 -14 147 -17 185 -6 214 -5 371 3 253 12 289 15 357 23 39 5 74 5 84
0 23 -13 78 0 99 23 20 22 71 27 78 8 2 -9 22 -12 58 -11 67 2 109 17 109 39
0 9 7 22 16 28 13 10 20 28 23 61 1 6 6 3 11 -5 6 -9 13 -11 18 -5 4 6 24 18
46 28 21 10 36 21 32 24 -3 4 2 15 11 25 21 23 18 97 -4 113 -24 18 138 55
164 38 15 -10 37 -10 103 -1 47 6 119 12 160 13 41 1 102 8 135 14 33 6 119
16 190 20 111 8 138 13 185 36 73 37 90 53 90 85 0 16 7 30 15 34 8 3 22 21
32 40 14 29 14 39 3 66 -7 17 -22 36 -33 41 -18 10 -16 13 24 36 32 18 52 23
74 18 61 -13 85 -9 108 20 12 15 29 36 37 47 8 10 29 20 47 22 42 6 70 21 89
52 13 19 23 24 43 19 14 -3 39 2 55 10 15 8 34 15 41 15 21 0 48 38 49 70 1
23 6 30 21 31 111 4 127 7 163 32 23 15 44 39 51 59 7 18 22 52 33 76 12 24
21 57 21 73 -1 16 -2 38 -2 49 -1 13 -8 20 -21 20 -11 0 -20 4 -20 10 0 5 -23
7 -53 5 -58 -4 -82 5 -82 32 0 11 -6 17 -17 15 -25 -4 -33 18 -9 25 25 7 26
11 2 42 -10 13 -21 19 -24 14 -4 -6 -28 -8 -55 -5 -42 4 -51 1 -68 -19 -12
-16 -27 -23 -42 -21 -13 2 -38 -6 -57 -17 -34 -20 -34 -20 -22 -1 6 11 15 20
20 20 4 0 6 4 3 9 -3 5 5 16 19 25 25 17 31 46 19 92 -12 45 -110 67 -180 42
-26 -9 -47 -9 -96 1 -35 6 -153 14 -263 16 -110 3 -245 7 -299 10 -78 4 -104
2 -122 -10 -16 -11 -25 -12 -30 -4 -5 8 -30 9 -83 5 -42 -4 -92 -9 -111 -11
-19 -2 -82 -13 -140 -25 -58 -12 -122 -26 -142 -30 -73 -14 -217 -72 -239 -96
l-23 -24 -22 27 -22 28 -149 -1 c-92 -1 -181 -7 -236 -18 -49 -9 -114 -19
-144 -21 -31 -3 -61 -10 -68 -15 -9 -8 -15 -8 -20 0 -5 8 -11 8 -21 -1 -8 -7
-46 -13 -85 -15 -60 -2 -73 0 -93 19 -41 37 -53 45 -92 62 -20 8 -45 13 -54
10 -13 -4 -19 2 -24 20 -4 14 -18 31 -31 37 -14 6 -25 15 -25 19 0 12 -52 21
-63 10 -18 -18 -27 -13 -27 13 0 30 -6 34 -95 64 -38 14 -75 28 -80 33 -13 10
-90 30 -130 33 -16 1 -41 8 -55 16 -25 13 -177 49 -214 50 -57 2 -97 8 -108
17 -7 6 -44 16 -83 24 -38 7 -79 19 -90 26 -12 7 -34 13 -50 13 -68 0 -80 1
-92 12 -7 6 -13 7 -13 3 0 -4 -7 -2 -15 5 -12 10 -18 10 -30 0 -14 -12 -16 -6
-13 51 2 57 -1 67 -24 92 -15 16 -32 27 -40 26 -19 -4 -72 11 -79 22 -3 5 -21
11 -40 13 -19 2 -52 11 -73 21 -21 9 -47 14 -58 12 -10 -3 -21 -1 -24 4 -3 5
-10 7 -15 3 -5 -3 -16 -1 -23 5 -19 16 -76 21 -76 7 0 -8 -2 -8 -8 0 -4 6 -28
10 -55 9 -31 -2 -50 1 -53 9 -3 7 -10 13 -17 14 -7 1 -37 4 -67 7 -30 3 -59
10 -66 16 -12 10 -41 8 -61 -4 -7 -4 -16 -1 -21 8 -7 13 -14 14 -37 5 -19 -7
-30 -7 -35 -1 -3 6 -16 9 -28 6 -12 -2 -34 3 -49 11 -16 7 -38 14 -49 14 -12
0 -27 7 -34 15 -7 8 -22 14 -34 14 -11 -1 -73 5 -136 12 -63 7 -142 12 -175
10 -33 -1 -78 -3 -100 -3 -23 -1 -64 9 -95 22 -42 19 -71 24 -124 23 -65 -1
-71 -4 -106 -38 -21 -20 -39 -33 -41 -27 -2 5 -24 21 -47 36 -24 15 -41 30
-38 33 12 12 -60 63 -90 63 -8 0 -14 4 -14 9 0 5 -10 11 -22 13 -13 2 -22 9
-20 17 2 9 -3 11 -13 7 -9 -3 -18 1 -22 10 -5 13 -7 13 -15 2 -7 -10 -11 -9
-23 6 -8 11 -15 27 -15 36 0 8 -11 31 -24 51 -18 26 -21 40 -15 52 8 13 6 17
-6 17 -8 0 -15 4 -15 9 0 5 -8 8 -17 7 -27 -4 -45 25 -25 40 14 10 14 14 3 28
-13 15 -51 23 -51 10 0 -3 5 -14 10 -25 7 -13 7 -19 0 -19 -5 0 -10 5 -10 10
0 6 -18 29 -40 52 -38 40 -48 65 -15 38 9 -7 18 -10 22 -6 8 8 -25 44 -48 51
-11 4 -19 13 -19 21 0 8 -7 17 -15 21 -9 3 -29 18 -45 34 -16 16 -35 29 -43
29 -8 0 -18 10 -21 23 -10 33 -73 82 -89 68 -14 -11 -74 0 -69 12 1 4 2 12 2
18 0 6 9 8 20 4 26 -8 25 5 -1 39 -19 24 -22 25 -33 11 -10 -15 -14 -14 -39 9
-22 21 -25 29 -18 49 8 20 4 30 -24 61 -27 31 -37 36 -52 28 -12 -7 -25 -7
-34 -2 -12 8 -12 13 0 32 13 20 11 24 -18 48 -17 15 -31 30 -31 35 0 4 -11 18
-25 31 -24 22 -25 22 -35 4z m216 -477 c-3 -4 -13 2 -20 13 -11 14 -11 21 -3
26 13 8 35 -28 23 -39z m371 -190 c-8 -7 -57 23 -57 35 0 6 -5 12 -12 12 -6 0
-8 3 -5 7 4 3 1 13 -5 22 -7 9 9 -4 35 -28 26 -25 45 -46 44 -48z m500 -501
c0 -10 -6 -24 -13 -33 -14 -16 -15 -44 -2 -64 4 -6 3 -16 -1 -23 -12 -19 -32
35 -36 94 -3 50 -3 50 24 46 17 -2 28 -10 28 -20z m973 -53 c0 -5 -4 -9 -10
-9 -5 0 -10 7 -10 16 0 8 5 12 10 9 6 -3 10 -10 10 -16z m65 -8 c3 -5 1 -12
-4 -15 -5 -3 -11 1 -15 9 -6 16 9 21 19 6z m359 -36 c-4 -8 -8 -15 -10 -15 -2
0 -4 7 -4 15 0 8 4 15 10 15 5 0 7 -7 4 -15z m230 -31 c9 -3 16 -13 16 -21 0
-20 -34 -12 -38 10 -4 19 -1 20 22 11z m50 -33 c3 -5 -1 -11 -9 -15 -9 -3 -15
0 -15 9 0 16 16 20 24 6z m-1553 -43 c31 -15 60 -28 65 -28 5 0 22 -7 37 -15
16 -8 59 -24 96 -35 38 -11 79 -28 92 -38 13 -10 37 -24 53 -32 16 -8 30 -20
33 -27 3 -6 10 -10 16 -7 19 6 35 -9 43 -40 6 -25 5 -28 -11 -23 -13 6 -16 3
-11 -9 3 -8 6 -20 6 -25 0 -5 5 -9 10 -9 6 0 9 5 8 12 -4 17 26 16 33 -1 4
-11 7 -11 20 1 18 17 44 17 44 0 0 -16 44 -42 61 -35 6 2 14 -7 16 -22 5 -22
2 -25 -15 -19 -14 4 -18 2 -15 -7 3 -8 9 -14 14 -14 17 -1 40 -20 47 -39 6
-15 10 -16 22 -6 8 7 12 17 8 23 -3 5 -1 7 5 3 6 -3 13 -2 17 4 10 16 25 12
25 -6 0 -10 6 -14 15 -10 8 3 15 1 15 -4 0 -16 32 -11 47 8 10 12 13 13 10 2
-6 -22 24 -70 45 -71 10 -1 24 -2 31 -3 6 -1 18 3 26 8 12 9 13 8 6 -4 -24
-39 -16 -49 37 -51 10 0 26 -10 36 -22 9 -12 24 -23 32 -25 8 -2 17 -8 21 -13
3 -5 13 -7 21 -4 8 3 23 -1 32 -10 14 -14 18 -11 15 11 -1 11 24 22 38 17 9
-4 12 -15 8 -37 -4 -27 0 -35 32 -58 20 -16 44 -28 55 -28 10 0 18 -4 18 -10
0 -5 16 -17 35 -26 19 -9 35 -20 35 -24 0 -9 43 -26 47 -19 1 2 9 -5 17 -16
13 -17 13 -21 1 -31 -12 -9 -12 -14 -1 -29 16 -22 52 -13 61 16 8 24 9 24 76
-10 49 -24 56 -31 53 -54 -2 -18 4 -32 19 -42 27 -19 38 -19 31 -1 -6 17 31
40 47 30 6 -3 9 -17 6 -31 -3 -14 1 -27 8 -29 7 -3 10 -14 8 -25 -5 -16 -1
-20 13 -17 11 2 22 7 25 11 7 10 39 -2 39 -14 0 -11 30 -12 30 -1 1 26 17 32
46 17 26 -13 27 -15 7 -15 -30 0 -29 -7 6 -41 17 -15 35 -38 41 -49 10 -19 18
-21 48 -16 l37 7 -25 -20 c-14 -11 -21 -23 -17 -27 16 -16 38 -11 54 12 12 19
19 22 29 13 8 -6 14 -18 14 -25 0 -16 18 -18 40 -4 9 5 19 5 25 0 15 -13 156
-60 178 -60 10 0 29 -7 42 -16 14 -9 34 -14 45 -11 10 3 24 -1 30 -8 11 -13
72 -25 147 -30 24 -1 49 -7 56 -13 7 -6 49 -14 94 -17 119 -8 204 -21 240 -36
23 -9 40 -10 60 -3 17 6 46 7 75 2 34 -6 56 -5 81 5 39 17 52 10 79 -40 l16
-32 -29 -10 c-17 -6 -39 -7 -51 -2 -12 4 -39 3 -61 -2 -31 -8 -41 -7 -48 4 -6
11 -14 11 -37 3 -16 -6 -55 -10 -86 -9 -43 2 -56 -1 -52 -10 3 -8 -4 -12 -19
-11 -13 0 -21 3 -19 5 2 2 -9 12 -25 22 -22 13 -37 15 -66 9 -40 -9 -55 -23
-55 -52 0 -10 -4 -18 -9 -18 -5 0 -17 -7 -25 -16 -9 -8 -16 -11 -16 -5 0 5 12
23 28 38 l27 27 -45 8 c-24 4 -60 4 -78 -2 -34 -9 -62 -5 -62 10 0 5 -21 8
-47 7 -38 -2 -48 2 -51 16 -2 10 3 17 12 17 9 0 16 -4 16 -9 0 -15 73 -7 78 8
3 10 -4 12 -29 7 -19 -3 -28 -3 -21 0 6 3 12 12 12 20 0 16 -60 20 -76 4 -10
-10 -106 -31 -113 -24 -2 2 2 11 9 20 12 13 11 17 0 24 -9 5 -19 5 -27 -1 -7
-6 -17 -8 -22 -4 -6 3 -19 -3 -29 -13 -18 -18 -58 -21 -94 -7 -12 5 -18 2 -18
-6 -1 -9 -4 -8 -11 4 -6 10 -22 17 -39 17 -19 0 -36 10 -54 31 -14 17 -26 26
-26 20 0 -19 -28 -12 -35 9 -3 11 -13 20 -21 20 -8 0 -13 -4 -10 -9 3 -5 -12
-5 -36 1 -23 5 -47 7 -55 4 -8 -3 -13 2 -14 14 -1 11 -3 25 -4 30 -1 6 -3 15
-4 21 0 7 -12 0 -25 -14 -20 -21 -26 -24 -35 -13 -6 8 -23 14 -38 14 -32 0
-52 24 -46 56 6 28 -18 45 -57 41 -14 -2 -28 -4 -32 -4 -13 -2 -9 -29 5 -34 6
-2 10 -6 7 -9 -3 -2 -21 1 -40 8 -27 10 -30 13 -12 13 15 1 22 7 22 20 0 27
-25 44 -59 39 -22 -3 -31 0 -34 14 -3 10 -16 22 -30 27 -14 5 -28 15 -32 20
-10 18 -44 12 -63 -9 -17 -21 -17 -21 -22 12 -4 28 -11 35 -43 45 -36 12 -95
48 -108 67 -4 5 -25 6 -47 4 -31 -5 -39 -3 -35 7 3 8 -12 25 -36 41 -33 22
-39 29 -30 41 9 10 9 17 1 25 -14 14 -35 0 -27 -20 5 -14 3 -13 -13 1 -11 10
-25 16 -33 14 -8 -2 -11 -2 -6 0 4 3 7 11 7 18 0 7 7 15 15 19 13 5 22 36 11
36 -20 0 -56 -22 -56 -35 0 -24 -17 -17 -24 9 -3 14 -14 27 -24 30 -11 4 -25
18 -33 32 -7 14 -26 32 -40 40 -15 7 -30 23 -34 34 -3 11 -17 28 -29 38 -13
10 -26 27 -30 38 -6 20 -44 44 -70 44 -7 0 -21 9 -31 20 -10 12 -25 18 -32 16
-7 -3 -18 1 -26 8 -7 7 -27 12 -45 11 -27 -2 -38 4 -59 32 -33 43 -61 59 -76
44 -6 -6 -16 -11 -22 -11 -5 0 -3 5 5 10 13 9 11 14 -12 33 -22 18 -27 29 -24
55 4 27 0 34 -24 47 -44 23 -95 19 -142 -11 -31 -20 -38 -28 -27 -35 12 -8 12
-10 -1 -18 -8 -5 -17 -8 -22 -5 -4 2 -12 -5 -18 -17 -11 -20 -13 -20 -30 -4
-20 18 -60 89 -60 106 0 10 -24 59 -92 192 l-35 67 36 -6 c20 -4 61 -20 92
-36z m875 13 c-6 -10 110 -35 123 -26 6 3 11 1 11 -5 0 -12 77 -9 98 3 7 5 12
3 12 -3 0 -7 6 -10 13 -7 6 2 17 -3 23 -12 8 -10 25 -14 47 -13 20 1 38 -2 42
-8 11 -18 25 -11 25 14 0 19 4 23 20 19 12 -3 20 -14 20 -25 0 -16 3 -18 14
-9 10 9 16 8 25 -3 7 -8 19 -12 27 -9 8 3 14 0 14 -6 0 -14 31 -2 47 18 11 14
14 14 23 1 8 -12 10 -11 10 7 0 30 54 43 77 18 4 -4 -1 -6 -13 -3 -26 6 -57
-9 -48 -24 4 -6 9 -5 15 3 12 20 28 0 32 -39 5 -42 9 -45 41 -32 35 13 49 5
34 -20 -7 -11 -29 -22 -53 -26 -22 -3 -47 -10 -56 -15 -11 -6 -22 -2 -34 11
-24 26 -74 41 -132 40 -26 -1 -77 4 -111 9 -35 6 -67 9 -72 6 -4 -3 -50 -5
-101 -6 -97 -1 -145 10 -155 36 -3 8 -10 13 -14 10 -4 -3 -13 2 -20 10 -7 8
-18 15 -26 15 -7 0 -19 7 -28 15 -8 9 -19 15 -23 14 -22 -4 -32 2 -27 16 6 16
54 17 65 2 10 -14 39 4 39 25 0 10 5 16 10 13 6 -4 8 -10 6 -14z m339 -1 c3
-5 1 -10 -4 -10 -6 0 -11 5 -11 10 0 6 2 10 4 10 3 0 8 -4 11 -10z m245 -20
c0 -5 -4 -10 -10 -10 -5 0 -10 5 -10 10 0 6 5 10 10 10 6 0 10 -4 10 -10z
m-876 -165 c-4 -8 -11 -12 -16 -9 -6 4 -5 10 3 15 19 12 19 11 13 -6z m1354
-217 c28 -1 48 5 62 17 17 15 20 16 15 3 -8 -21 30 -48 68 -48 15 0 30 7 33
15 9 22 21 18 36 -12 13 -28 18 -30 173 -67 28 -6 59 -16 70 -22 11 -6 43 -17
70 -24 28 -7 54 -19 58 -27 4 -7 13 -13 20 -13 6 0 35 -10 64 -22 50 -20 53
-21 79 -3 25 16 27 16 21 1 -10 -26 10 -54 48 -71 44 -18 48 -38 5 -24 -23 8
-36 7 -62 -7 -66 -34 -68 -35 -68 -21 0 16 -58 39 -66 26 -10 -17 -35 -9 -44
16 -5 14 -22 30 -37 36 -16 6 -47 19 -69 29 -23 10 -59 22 -80 26 -22 3 -45
11 -51 16 -31 24 -139 69 -173 71 -21 1 -44 8 -52 14 -7 7 -36 17 -63 24 -51
12 -64 16 -125 43 -19 8 -48 16 -65 18 l-30 3 22 22 c21 21 21 21 60 2 21 -10
58 -20 81 -21z m-1824 17 c3 -9 0 -15 -9 -15 -9 0 -12 6 -9 15 4 8 7 15 9 15
2 0 5 -7 9 -15z m650 9 c24 -9 19 -24 -7 -24 -14 0 -24 6 -24 15 0 16 7 18 31
9z m154 -35 c-15 -9 -38 7 -38 27 0 12 5 11 26 -2 18 -13 22 -19 12 -25z m212
-17 c0 -10 -3 -10 -14 0 -7 7 -11 19 -8 26 4 11 6 11 13 0 5 -7 9 -19 9 -26z
m-99 12 c10 -12 14 -12 22 -2 6 9 7 8 3 -4 -9 -28 3 -45 27 -41 14 3 30 -3 41
-16 17 -19 18 -24 6 -46 -15 -28 -30 -33 -30 -10 0 9 -9 26 -20 38 -18 18 -22
20 -30 7 -8 -12 -15 -9 -40 20 -16 19 -30 38 -30 43 0 4 -7 7 -16 7 -28 0 -7
15 24 17 17 1 36 -5 43 -13z m-54 -64 c-1 -20 -8 -25 -20 -14 -7 8 3 34 13 34
5 0 8 -9 7 -20z m3913 -184 c-5 -5 -40 -10 -77 -11 -120 -5 -167 -13 -180 -31
-7 -10 -13 -13 -13 -8 0 5 -13 10 -30 9 -16 0 -30 -3 -30 -6 0 -4 -17 -10 -37
-13 -21 -4 -60 -15 -88 -25 -27 -10 -61 -18 -75 -17 -14 1 -30 -5 -36 -13 -10
-13 -17 -13 -38 -3 -29 13 -35 32 -10 32 8 0 13 -4 9 -9 -3 -5 -1 -12 4 -15
13 -9 29 16 26 43 -2 22 -1 23 12 5 12 -17 14 -16 25 14 11 27 19 33 63 41 69
14 123 17 317 16 98 0 163 -4 158 -9z m160 -11 c-27 -29 -45 -32 -54 -9 -9 23
-9 22 27 27 17 2 36 5 41 5 5 1 -1 -9 -14 -23z m380 -38 c0 -18 -57 -40 -109
-41 -25 -1 -53 -6 -61 -10 -8 -5 -5 2 8 16 12 13 22 31 22 39 0 9 11 16 26 17
14 1 33 6 42 11 19 11 72 -13 72 -32z m-3510 14 c0 -10 6 -23 13 -29 23 -19
132 -49 170 -46 24 2 37 -1 37 -9 0 -29 85 -54 121 -36 10 5 23 3 35 -7 11 -9
13 -13 7 -9 -7 3 -13 2 -13 -4 0 -15 18 -23 25 -11 4 6 11 8 16 4 5 -3 7 -9 4
-14 -3 -5 6 -21 20 -36 22 -24 24 -29 10 -36 -20 -12 -19 -35 3 -46 20 -11 44
-5 55 14 8 14 67 16 67 2 0 -5 4 -7 9 -3 6 3 14 -2 19 -10 4 -9 26 -18 47 -21
22 -3 43 -10 47 -17 4 -7 8 -8 8 -3 0 4 12 1 26 -9 18 -11 29 -13 38 -6 9 7
17 5 29 -7 42 -44 57 -53 79 -51 12 1 31 -1 40 -5 10 -5 36 -6 58 -3 28 3 40
1 40 -8 0 -15 -63 -26 -105 -18 -16 3 -48 7 -70 10 -22 3 -49 12 -60 19 -11 7
-29 13 -40 14 -52 2 -85 8 -97 17 -11 9 -100 38 -148 48 -44 10 -158 49 -189
66 -20 10 -45 19 -57 19 -11 0 -29 9 -39 20 -12 13 -31 21 -54 21 -75 0 -106
5 -103 17 1 7 -6 12 -16 12 -10 0 -23 5 -30 12 -7 7 -12 9 -12 5 0 -4 -16 0
-36 8 -20 8 -49 15 -65 15 -15 0 -34 7 -42 15 -8 8 -25 12 -37 10 -19 -4 -20
-2 -8 13 7 9 23 25 35 35 12 9 25 27 28 38 6 17 12 19 54 13 31 -4 51 -2 55 5
11 17 26 13 26 -8z m1470 -81 c-9 -6 -10 -10 -3 -10 6 0 15 5 18 10 4 6 11 7
18 3 22 -13 417 -22 417 -9 0 5 20 6 45 4 25 -3 48 -2 51 3 3 5 10 9 17 9 8 0
8 -3 -1 -12 -20 -20 -13 -28 20 -21 23 5 29 3 24 -6 -5 -7 -15 -10 -23 -7 -11
4 -13 1 -8 -15 6 -16 3 -20 -13 -17 -10 2 -26 -3 -35 -11 -10 -7 -28 -13 -42
-13 -14 0 -25 -5 -25 -10 0 -5 -4 -7 -9 -3 -5 3 -12 1 -16 -5 -4 -6 -12 -7
-24 0 -12 6 -22 5 -29 -2 -12 -12 -21 -14 -73 -23 -15 -2 -55 -16 -89 -30 -50
-21 -65 -24 -71 -13 -12 18 -11 30 2 22 7 -4 9 1 7 12 -2 11 -10 18 -16 17 -7
-2 -12 4 -12 12 0 8 -9 15 -20 15 -11 0 -23 6 -26 14 -3 8 -21 17 -40 21 -24
4 -38 13 -44 31 -5 13 -15 24 -22 24 -9 0 -8 3 2 10 8 5 20 10 25 10 6 0 3 -5
-5 -10z m-1023 -26 c-3 -3 -12 -4 -19 -1 -8 3 -5 6 6 6 11 1 17 -2 13 -5z
m1703 -28 c0 -8 -5 -18 -10 -21 -6 -4 -8 -10 -5 -15 3 -5 1 -11 -4 -14 -5 -3
-11 8 -13 24 -4 27 2 37 25 39 4 1 7 -5 7 -13z m825 -16 c-3 -5 -10 -10 -16
-10 -5 0 -9 5 -9 10 0 6 7 10 16 10 8 0 12 -4 9 -10z m-4320 -10 c3 -6 -1 -7
-9 -4 -18 7 -21 14 -7 14 6 0 13 -4 16 -10z m4167 -29 c3 -1 4 -10 1 -22 -5
-18 -11 -19 -59 -13 -37 4 -54 3 -54 -5 0 -6 -9 -11 -19 -11 -11 0 -27 -7 -35
-16 -9 -8 -16 -12 -16 -8 0 3 -7 0 -17 -7 -9 -8 -24 -14 -33 -14 -9 0 -23 -7
-31 -15 -21 -21 -31 -50 -17 -50 6 0 8 -3 5 -7 -10 -10 13 -32 27 -27 8 3 16
-2 19 -10 7 -18 48 -21 63 -6 7 7 21 7 43 -1 25 -9 43 -9 74 1 23 7 65 19 92
27 28 8 57 22 65 32 12 13 34 16 111 16 61 0 101 -4 111 -12 15 -13 152 -26
241 -24 26 0 47 -3 47 -7 0 -5 -6 -9 -12 -10 -7 0 -44 -8 -83 -17 -59 -13 -96
-18 -220 -27 -5 0 -35 4 -66 9 -42 7 -61 6 -74 -3 -14 -11 -20 -10 -32 2 -8 7
-22 14 -31 14 -27 0 -81 -38 -94 -66 -11 -24 -16 -25 -77 -23 -56 2 -73 7
-113 36 -26 18 -58 33 -71 33 -13 0 -28 5 -35 12 -8 8 -14 5 -21 -14 -5 -15
-15 -29 -21 -33 -9 -5 -9 -2 -3 11 5 11 8 25 7 32 -1 6 -2 17 -3 22 0 6 -13
10 -28 10 l-28 1 28 22 c27 23 38 45 15 31 -7 -5 -32 -9 -55 -9 -32 -2 -47 -8
-62 -26 -18 -22 -22 -23 -52 -12 -27 10 -36 10 -48 -1 -13 -11 -63 -24 -104
-26 -5 0 -6 -4 -2 -9 3 -5 1 -12 -4 -15 -14 -9 -41 4 -41 19 0 17 -25 26 -38
13 -5 -5 -40 -12 -78 -14 -71 -5 -143 -27 -156 -47 -5 -8 -8 -6 -8 6 0 16 -6
17 -47 12 -27 -4 -59 -15 -74 -25 -22 -16 -27 -16 -45 -3 -12 9 -36 13 -66 11
-25 -2 -44 0 -41 5 2 4 10 7 17 7 7 0 27 7 44 16 18 8 36 13 42 9 5 -3 10 -1
10 4 0 6 3 10 8 9 16 -4 82 14 82 22 0 6 14 10 31 10 17 0 40 5 52 12 12 6 32
13 45 14 13 2 30 8 37 14 8 7 27 9 42 6 21 -5 34 0 54 18 21 19 29 22 39 13
10 -9 14 -9 17 1 3 6 9 10 14 7 5 -4 6 0 3 8 -3 8 2 17 11 21 9 3 14 2 11 -3
-12 -19 44 -20 107 -2 36 11 68 17 70 14 10 -10 47 9 47 23 0 13 2 13 16 0 8
-9 18 -16 22 -17 4 0 15 -2 25 -4 10 -2 17 3 17 13 0 14 2 15 9 3 8 -12 12
-12 24 -3 11 9 26 10 55 4 28 -7 44 -6 52 2 6 6 32 11 58 12 26 0 60 7 76 16
23 12 64 15 128 9z m-1591 -65 c1 -6 1 -14 0 -18 0 -5 8 -8 19 -8 11 0 20 -5
20 -11 0 -6 12 -9 28 -7 25 3 27 0 30 -37 4 -51 -7 -113 -18 -96 -5 9 -13 10
-26 3 -28 -14 -195 -25 -224 -14 -24 9 -24 10 -5 18 11 4 24 13 28 21 4 7 14
13 20 13 22 0 75 65 86 107 7 24 17 40 26 40 8 0 16 -5 16 -11z m-2389 -58
c28 -29 55 -52 59 -51 4 2 10 -6 14 -16 3 -10 17 -23 30 -29 14 -6 25 -16 25
-22 0 -20 -25 -9 -62 27 -36 36 -37 36 -63 19 -26 -17 -26 -17 -15 4 17 32
-11 70 -51 70 -24 0 -30 4 -25 16 3 9 6 20 6 25 0 23 34 5 82 -43z m955 46
c-3 -3 -12 -4 -19 -1 -8 3 -5 6 6 6 11 1 17 -2 13 -5z m2809 -71 c-3 -17 -26
-26 -26 -10 0 4 0 12 0 17 0 6 6 10 14 10 8 0 13 -8 12 -17z m-206 -37 c0 -16
-18 -31 -27 -22 -8 8 5 36 17 36 5 0 10 -6 10 -14z m-2840 -56 c0 -5 -10 -10
-22 -9 -22 0 -22 1 -3 9 11 5 21 9 23 9 1 1 2 -3 2 -9z m2895 -14 c12 -11 9
-17 -15 -34 -15 -12 -31 -35 -35 -52 -4 -16 -10 -30 -15 -30 -4 0 -13 -13 -19
-28 -15 -36 0 -82 27 -82 10 0 22 -4 28 -8 5 -5 41 -19 79 -31 60 -18 88 -21
192 -17 67 2 126 7 132 10 6 4 41 9 78 11 86 5 66 -8 -47 -30 -47 -10 -89 -21
-95 -25 -5 -4 -55 -16 -110 -25 -55 -10 -116 -26 -135 -36 -41 -22 -54 -24
-44 -6 6 10 4 10 -7 0 -7 -7 -33 -13 -58 -13 -26 0 -53 -4 -61 -10 -9 -5 -19
-5 -26 1 -8 7 -14 6 -19 -1 -3 -5 -17 -7 -31 -4 -18 5 -24 2 -24 -10 0 -10 -6
-13 -15 -10 -8 4 -23 3 -32 -1 -17 -7 -16 -8 2 -15 17 -7 15 -9 -11 -9 -20 -1
-34 5 -38 14 -3 8 -14 15 -24 15 -10 0 -22 3 -25 7 -13 12 -68 13 -90 1 -36
-19 -57 -17 -63 8 -6 24 -36 40 -65 36 -9 -2 -22 4 -29 12 -8 11 -23 14 -49
10 -20 -3 -33 -3 -29 2 11 10 -33 39 -55 36 -11 -2 -24 8 -35 27 -9 17 -29 35
-44 40 -16 6 -28 16 -28 24 0 8 -12 26 -26 40 -14 14 -24 34 -22 44 3 16 5 16
23 -4 14 -16 31 -23 57 -23 27 0 41 6 53 23 15 21 17 21 26 4 14 -24 64 -14
100 19 27 26 49 30 80 13 16 -8 29 -7 54 5 18 9 56 16 84 16 36 0 53 5 59 16
9 17 31 22 117 28 28 2 52 5 55 6 3 1 9 2 15 0 5 -1 15 6 21 15 8 10 35 20 66
25 29 4 54 8 56 9 2 0 10 -5 17 -13z m-915 -26 c0 -5 -8 -10 -17 -10 -15 0
-16 2 -3 10 19 12 20 12 20 0z m-1880 -114 c19 -12 43 -22 53 -20 9 1 17 -2
17 -8 0 -6 9 -8 19 -5 28 7 49 -9 22 -18 -12 -4 -21 -15 -22 -28 -1 -20 -2
-19 -12 6 -6 15 -18 27 -27 26 -30 -3 -40 1 -40 15 0 8 -13 19 -30 25 -16 5
-30 15 -30 20 0 16 12 13 50 -13z m46 -3 c-10 -10 -19 5 -10 18 6 11 8 11 12
0 2 -7 1 -15 -2 -18z m221 -55 c-3 -7 -5 -2 -5 12 0 14 2 19 5 13 2 -7 2 -19
0 -25z m28 -59 c-3 -4 2 -10 10 -13 11 -4 15 0 13 12 -4 21 5 21 60 -3 32 -14
41 -22 37 -36 -4 -12 1 -22 15 -29 31 -17 45 -2 21 24 -15 16 -18 25 -10 33
14 14 39 6 39 -13 0 -8 8 -15 18 -16 9 0 23 -2 31 -2 17 -1 28 -26 11 -26 -6
0 -8 -5 -5 -10 4 -6 12 -4 21 5 26 26 47 15 24 -13 -7 -9 -7 -9 2 -2 17 14 54
13 70 -2 26 -25 57 -38 63 -28 3 6 3 14 0 20 -3 5 0 19 8 30 12 17 16 18 20 6
3 -8 4 -25 2 -37 -6 -32 12 -51 36 -38 10 5 19 7 19 4 0 -3 9 -1 20 5 11 6 20
7 20 1 0 -16 32 -22 47 -9 12 10 17 9 24 -5 6 -9 21 -17 34 -17 15 0 24 -5 23
-12 -2 -7 5 -12 15 -12 9 1 17 -2 17 -7 0 -5 4 -9 10 -9 5 0 7 7 4 15 -4 8 -1
15 5 15 6 0 11 -4 11 -9 0 -5 18 -7 40 -4 30 4 40 2 41 -8 0 -8 4 -5 8 6 8 19
8 19 20 -2 7 -14 17 -20 26 -17 9 4 15 0 15 -8 0 -12 14 -14 63 -9 4 1 7 8 7
16 0 14 3 13 25 -1 14 -9 22 -20 19 -25 -3 -5 6 -9 20 -9 13 0 31 -6 38 -13 9
-9 47 -12 133 -11 66 1 151 -3 188 -9 58 -10 73 -9 96 4 34 20 129 11 186 -18
22 -11 54 -24 72 -27 17 -4 37 -13 43 -21 14 -17 45 -14 88 7 17 9 34 13 37 8
3 -5 22 -6 41 -3 28 5 39 2 46 -11 7 -12 18 -15 46 -11 20 3 74 7 119 8 67 3
80 1 71 -10 -6 -7 -19 -13 -29 -13 -11 0 -19 -4 -19 -8 0 -10 -48 -36 -70 -37
-8 -1 -21 4 -29 9 -12 9 -13 8 -7 -3 6 -10 4 -12 -11 -7 -11 4 -40 -3 -67 -14
-25 -12 -54 -20 -64 -19 -9 1 -21 0 -27 -1 -14 -4 -56 -8 -172 -13 -56 -3
-112 -11 -124 -17 -12 -7 -72 -13 -133 -15 -62 -1 -122 -7 -133 -13 -11 -6
-23 -9 -26 -5 -8 7 -74 13 -212 18 -60 2 -132 8 -159 14 -26 6 -52 9 -56 6 -5
-3 -12 0 -16 6 -8 14 -96 4 -135 -17 -15 -7 -36 -14 -46 -14 -17 1 -17 1 1 15
22 17 12 37 -17 34 -12 -1 -29 1 -37 4 -8 4 -24 5 -34 4 -12 -1 -24 7 -32 23
-30 61 -43 100 -34 100 12 0 1 32 -17 46 -8 7 -23 10 -33 7 -14 -4 -20 0 -20
11 0 18 -25 22 -35 6 -11 -17 -42 -11 -48 10 -3 12 -14 20 -25 20 -12 0 -23 4
-26 9 -8 12 -55 20 -62 10 -3 -5 -15 0 -26 11 -12 11 -32 20 -44 20 -12 0 -24
7 -28 15 -3 9 -18 15 -38 15 -20 0 -41 9 -57 24 -41 37 -66 41 -85 11 -9 -14
-23 -25 -31 -25 -16 0 -38 34 -28 44 3 3 1 6 -6 6 -6 0 -11 8 -9 18 2 10 -2
16 -11 14 -19 -4 -101 31 -101 43 0 7 14 9 34 7 18 -2 37 1 40 7 10 15 53 14
60 -1 4 -10 8 -9 17 3 11 15 14 15 30 1 10 -9 16 -19 14 -23z m425 19 c0 -4
-9 -12 -20 -18 -14 -7 -20 -7 -20 0 0 5 6 10 13 10 8 0 7 3 -3 10 -12 7 -10 9
8 7 12 0 22 -5 22 -9z m2727 -4 c-3 -3 -12 -4 -19 -1 -8 3 -5 6 6 6 11 1 17
-2 13 -5z m-100 -20 c-3 -3 -12 -4 -19 -1 -8 3 -5 6 6 6 11 1 17 -2 13 -5z
m-2565 -28 c8 -15 6 -17 -13 -14 -13 2 -25 11 -27 20 -4 22 27 17 40 -6z m-62
-17 c0 -5 -9 -9 -20 -9 -11 0 -20 4 -20 8 0 4 9 8 20 9 11 1 20 -2 20 -8z
m120 -14 c0 -8 -2 -15 -4 -15 -2 0 -6 7 -10 15 -3 8 -1 15 4 15 6 0 10 -7 10
-15z m650 -11 c0 -16 -16 -19 -25 -4 -8 13 4 32 16 25 5 -4 9 -13 9 -21z
m-597 -21 c-3 -7 -9 -10 -14 -7 -5 3 -9 -2 -9 -10 0 -9 -5 -16 -10 -16 -7 0
-7 6 0 20 6 11 8 20 5 20 -3 0 0 6 7 14 15 16 29 1 21 -21z m471 -14 c-7 -11
-34 -12 -34 -1 0 14 11 21 26 15 8 -3 11 -9 8 -14z m-1350 -14 c8 -22 -16 -30
-30 -10 -7 10 -11 22 -8 26 7 11 31 0 38 -16z m748 3 c-7 -7 -12 -8 -12 -2 0
14 12 26 19 19 2 -3 -1 -11 -7 -17z m-392 -12 c0 -3 -4 -8 -10 -11 -5 -3 -10
-1 -10 4 0 6 5 11 10 11 6 0 10 -2 10 -4z m760 -17 c0 -6 -4 -7 -10 -4 -5 3
-10 11 -10 16 0 6 5 7 10 4 6 -3 10 -11 10 -16z m40 7 c0 -2 -7 -7 -16 -10 -8
-3 -12 -2 -9 4 6 10 25 14 25 6z m335 -16 c3 -5 -1 -10 -9 -10 -8 0 -18 5 -21
10 -3 6 1 10 9 10 8 0 18 -4 21 -10z m1329 1 c3 -5 -1 -11 -9 -15 -15 -6 -29
7 -18 18 9 9 21 8 27 -3z m-2181 -143 c6 -21 3 -22 -24 -8 -24 14 -24 26 0 26
11 0 22 -8 24 -18z m101 -127 c3 -5 -8 -11 -24 -13 -20 -3 -30 0 -30 9 0 14
46 18 54 4z m61 -21 c3 -5 1 -10 -4 -10 -6 0 -11 5 -11 10 0 6 2 10 4 10 3 0
8 -4 11 -10z m1762 -56 c-3 -3 -12 -4 -19 -1 -8 3 -5 6 6 6 11 1 17 -2 13 -5z"/>
<path d="M4180 5160 c0 -5 7 -10 16 -10 8 0 12 5 9 10 -3 6 -10 10 -16 10 -5
0 -9 -4 -9 -10z"/>
<path d="M4245 5129 c-4 -6 -5 -12 -2 -15 2 -3 7 2 10 11 7 17 1 20 -8 4z"/>
<path d="M5489 4409 c-19 -36 2 -65 52 -73 30 -5 45 -3 51 6 14 22 4 43 -20
42 -12 0 -22 4 -22 9 0 10 -30 36 -42 37 -4 0 -12 -10 -19 -21z"/>
<path d="M6133 3995 c0 -9 4 -14 9 -13 5 2 10 8 10 13 0 5 -5 11 -10 13 -5 1
-9 -4 -9 -13z"/>
<path d="M2435 6850 c-3 -5 -1 -10 4 -10 6 0 11 5 11 10 0 6 -2 10 -4 10 -3 0
-8 -4 -11 -10z"/>
<path d="M2160 6828 c0 -22 96 -121 109 -114 16 10 13 16 -38 75 -42 49 -71
65 -71 39z"/>
<path d="M2394 6486 c-8 -22 3 -33 18 -18 9 9 9 15 0 24 -9 9 -13 7 -18 -6z"/>
<path d="M2740 6227 c0 -16 42 -57 58 -57 20 0 14 25 -11 48 -26 25 -47 29
-47 9z"/>
<path d="M2905 6090 c-8 -13 1 -27 26 -40 27 -15 39 16 13 35 -23 17 -31 18
-39 5z"/>
<path d="M3181 6084 c0 -11 3 -14 6 -6 3 7 2 16 -1 19 -3 4 -6 -2 -5 -13z"/>
<path d="M3200 6076 c0 -8 5 -18 10 -21 6 -3 10 1 10 9 0 8 -4 18 -10 21 -5 3
-10 -1 -10 -9z"/>
<path d="M3170 6051 c0 -6 5 -13 10 -16 6 -3 10 1 10 9 0 9 -4 16 -10 16 -5 0
-10 -4 -10 -9z"/>
<path d="M2986 6033 c-14 -14 -4 -32 34 -57 31 -20 40 -23 40 -11 0 28 -59 83
-74 68z"/>
<path d="M3535 4640 c-3 -5 -1 -10 4 -10 6 0 11 5 11 10 0 6 -2 10 -4 10 -3 0
-8 -4 -11 -10z"/>
<path d="M3617 4598 c-8 -29 22 -53 42 -34 17 18 5 56 -19 56 -10 0 -20 -9
-23 -22z"/>
<path d="M3536 4555 c3 -8 12 -11 20 -8 20 7 17 18 -5 20 -13 1 -18 -3 -15
-12z"/>
<path d="M3715 4529 c-4 -6 -4 -13 -1 -16 8 -8 36 5 36 17 0 13 -27 13 -35 -1z"/>
<path d="M3774 4519 c-10 -17 13 -36 27 -22 12 12 4 33 -11 33 -5 0 -12 -5
-16 -11z"/>
<path d="M3813 4474 c-9 -25 13 -40 26 -16 10 19 6 32 -11 32 -5 0 -11 -7 -15
-16z"/>
<path d="M6143 3495 c-3 -9 -3 -18 0 -21 9 -9 27 6 27 22 0 19 -19 18 -27 -1z"/>
<path d="M6081 3476 c-15 -28 -8 -46 19 -46 27 0 42 31 25 53 -17 23 -29 21
-44 -7z"/>
<path d="M6200 3465 c-16 -41 -13 -48 17 -40 47 11 58 57 15 63 -16 3 -25 -4
-32 -23z"/>
</g>
</svg>
